HIERARCHY
ROOT simHips
{
  OFFSET -2.22114 30.5426 -2.05664
  CHANNELS 6 Xposition Yposition Zposition Zrotation Xrotation Yrotation
  JOINT simSpine
  {
    OFFSET -0.000355721 21.3001 -0.016921
    CHANNELS 3 Zrotation Xrotation Yrotation
    JOINT simLeftArm
    {
      OFFSET 13.5181 21.3012 0
      CHANNELS 3 Zrotation Xrotation Yrotation
      JOINT simLeftForeArm
      {
        OFFSET 24.5783 0 0
        CHANNELS 3 Zrotation Xrotation Yrotation
        JOINT simLeftHand
        {
          OFFSET 24.5783 0 0
          CHANNELS 3 Zrotation Xrotation Yrotation
          End Site
          {
            OFFSET 7.32568 1.52588e-05 0.0169305
          }
        }
      }
    }
    JOINT simHead
    {
      OFFSET 0 27.4458 -0.00489235
      CHANNELS 3 Zrotation Xrotation Yrotation
      End Site
      {
        OFFSET 0 0 0
      }
    }
    JOINT simRightArm
    {
      OFFSET -13.5174 21.3012 0
      CHANNELS 3 Zrotation Xrotation Yrotation
      JOINT simRightForeArm
      {
        OFFSET -24.5783 0 0
        CHANNELS 3 Zrotation Xrotation Yrotation
        JOINT simRightHand
        {
          OFFSET -24.5783 0 0
          CHANNELS 3 Zrotation Xrotation Yrotation
          End Site
          {
            OFFSET -7.32568 1.52588e-05 0.0169305
          }
        }
      }
    }
  }
  JOINT simRightUpLeg
  {
    OFFSET -8.44614 -9.41038 0.835684
    CHANNELS 3 Zrotation Xrotation Yrotation
    JOINT simRightLeg
    {
      OFFSET 0 -40.9639 0
      CHANNELS 3 Zrotation Xrotation Yrotation
      JOINT simRightFoot
      {
        OFFSET 0 -40.9639 0
        CHANNELS 3 Zrotation Xrotation Yrotation
        End Site
        {
          OFFSET 0.50614 -9.67405 14.6709
        }
      }
    }
  }
  JOINT simLeftUpLeg
  {
    OFFSET 8.44614 -9.41038 0.835684
    CHANNELS 3 Zrotation Xrotation Yrotation
    JOINT simLeftLeg
    {
      OFFSET 0 -40.9639 0
      CHANNELS 3 Zrotation Xrotation Yrotation
      JOINT simLeftFoot
      {
        OFFSET 0 -40.9639 0
        CHANNELS 3 Zrotation Xrotation Yrotation
        End Site
        {
          OFFSET -0.50614 -9.67405 14.6709
        }
      }
    }
  }
}
MOTION
Frames: 21
Frame Time: 0.0333333
-2.22114 30.5426 -2.05664 53.4967 -42.208 31.6524 10.2228 60.8224 -29.7813 -8.05296 15.2207 -37.7379 0.0103852 -8.25353e-06 -122.745 -21.2245 -13.3974 -16.0566 -11.7645 16.6455 -1.87869 84.8145 -27.7569 -5.27767 -1.21332e-05 -1.15013e-05 39.4217 -45.1105 18.2972 2.33701 10.8425 -39.5135 -19.3456 88.8315 84.5439 -98.8766 5.71791 14.9719 -19.148 7.89748 -45.6768 71.4347 169.764 35.6977 -159.584 14.7185 -18.7158 15.9913 
-2.32541 34.113 -4.83774 55.1634 -35.7936 28.981 9.60663 60.1561 -28.5119 -14.0637 10.9762 -52.1204 0.0103862 -6.53345e-06 -115.352 -26.4167 -15.0006 -1.99727 -11.9275 13.8228 -3.13426 87.0305 -33.8249 5.78694 -1.44929e-05 -1.30894e-05 28.4595 -47.1948 15.428 10.717 8.38393 -37.4348 -17.04 38.6336 79.3574 -41.693 -23.228 14.2257 -20.9328 15.6086 -45.3681 69.7312 172.069 41.8358 -175.739 0.189057 -14.4581 4.71545 
-3.29273 38.3698 -7.99483 55.1219 -28.8478 25.1789 9.88584 59.3556 -27.8093 -26.2488 9.21556 -60.0952 0.0103875 -2.2464e-06 -98.4658 -29.7727 -14.4912 -8.04015 -13.0456 10.4945 -5.03455 86.7875 -32.0086 16.1388 -1.70252e-05 -1.41722e-05 17.8455 -48.4017 7.47509 13.0627 12.6848 -35.3079 -8.00606 5.4122 66.7524 -11.8341 -40.7433 14.4194 -18.8337 20.3784 -43.7604 63.2697 175.749 49.8968 175.685 -7.69869 -14.1811 0.437141 
-4.80729 42.8783 -10.8963 55.0273 -21.6581 21.5385 10.7394 58.1725 -27.3733 -41.7896 9.9726 -62.0576 0.0103876 1.79867e-06 -83.2304 -23.2682 -8.76499 -18.6551 -15.4481 7.49142 -7.35135 83.7615 -27.2517 23.252 -1.86706e-05 -1.46e-05 11.2994 -49.1639 -1.2774 11.2126 14.2466 -35.3005 0.912231 -5.61383 55.1858 1.66796 -40.1253 16.2164 -16.6189 20.5143 -40.6389 52.001 -178.968 58.2664 171.48 -11.946 -16.3348 1.9261 
-6.42591 47.2924 -13.2003 55.6759 -15.0438 18.3645 11.4571 56.4001 -26.7563 -55.4792 13.8213 -60.3294 0.0103869 4.86639e-06 -71.4021 -14.3868 -1.76722 -22.0513 -18.9435 5.41833 -9.57793 79.6293 -23.631 26.5097 -1.87899e-05 -1.46233e-05 10.8315 -50.3423 -6.74124 7.61927 10.9308 -35.1216 2.80603 -7.38765 42.9864 8.3043 -38.5158 22.6078 -14.147 16.1117 -34.4933 37.0031 -172.871 66.4749 167.751 -13.0572 -18.2832 3.10301 
-7.92963 51.3464 -14.7042 56.1139 -9.51533 14.736 11.3721 54.2107 -25.5303 -63.6874 18.3514 -57.6976 0.0103857 7.57306e-06 -60.244 -11.4721 6.94917 -21.0787 -22.7333 3.90965 -11.1367 75.4713 -20.5446 28.971 -1.87279e-05 -1.46113e-05 11.0747 -51.6935 -10.1523 4.52045 6.1833 -32.3196 1.0392 -4.7236 27.0246 11.9761 -40.3011 28.6289 -8.31347 9.78379 -24.5657 22.712 -164.966 77.5457 159.406 -12.3123 -15.9254 0.359908 
-8.84158 54.4518 -15.243 55.4358 -4.54757 10.0645 9.89634 52.2495 -23.7471 -65.7757 20.6532 -57.0784 0.0103839 1.00886e-05 -48.6113 -9.71445 10.9633 -20.8987 -25.7784 1.75116 -11.8866 71.4477 -15.5864 32.2819 0.00140223 -1.46598e-05 10.0567 -52.7536 -13.7532 1.46861 5.49309 -39.3069 2.06443 -3.45576 35.6802 11.4077 -27.4289 21.0006 -6.97011 3.97275 -13.0945 13.5784 -22.488 86.053 15.432 -12.0395 -8.38494 -7.54676 
-9.47163 56.5095 -15.8592 52.9852 0.434495 5.09269 8.13713 51.2133 -22.1759 -64.5687 20.0073 -59.0775 0.010382 1.18643e-05 -38.9644 -6.19273 7.44431 -21.3056 -27.5151 -2.18152 -12.2568 67.9533 -8.94352 36.5588 0.041008 -1.46932e-05 9.29207 -53.5564 -17.8479 -2.17408 6.53489 -47.5176 2.98721 0.178137 53.7713 5.72439 -3.84402 4.48358 -5.11002 0.222043 -4.06372 9.48989 3.6698 67.5755 -12.9974 -13.5888 -0.00342408 -17.3207 
-10.1822 57.7879 -17.1899 49.6806 5.73685 0.994767 6.51816 51.3158 -21.39 -63.3861 16.5026 -58.0034 0.010382 1.18441e-05 -39.0847 0.650183 -8.85933 -13.9465 -28.1881 -8.09836 -12.8679 66.3195 -3.21857 41.2625 -0.00075771 -1.46208e-05 10.8835 -54.0538 -20.4115 -5.36797 7.52782 -55.425 0.49317 10.1021 75.8988 -4.60895 7.95035 -5.08748 -0.59945 -1.26133 -0.211542 7.8756 6.6565 50.3719 -15.7143 -17.27 4.06361 -25.5836 
-11.0359 58.5254 -19.0525 46.5319 11.4976 -1.88363 5.01649 52.1095 -21.6769 -64.3477 13.333 -57.665 0.0103817 1.21134e-05 -37.4517 11.111 -29.2537 -1.83465 -28.3126 -15.2367 -14.1399 66.7436 0.717905 47.0968 -2.2556e-05 -1.45217e-05 12.7464 -53.8711 -21.5371 -6.80877 2.0403 -60.8633 -6.58006 162.675 80.9026 -157.737 8.40805 -13.4748 1.64173 -0.297535 -4.82517 6.3585 8.36893 45.3274 -14.5658 -22.0596 3.53318 -25.9946 
-12.6355 59.4551 -20.9465 43.2869 18.1569 -3.67195 3.98483 53.0544 -22.7346 -67.1154 10.4186 -54.7533 0.0103822 1.17408e-05 -39.6961 36.799 -37.4687 27.74 -27.9904 -22.2616 -16.0734 68.2837 3.77166 54.2426 0.000292922 -1.45028e-05 13.0708 -52.9493 -22.9232 -6.7317 -5.20289 -61.9096 -10.5712 177.439 63.2056 -176.971 4.43109 -17.4242 1.56678 2.55942 -12.9078 4.53392 8.84946 44.3211 -10.6904 -25.8899 5.13151 -25.1161 
-15.2107 61.1237 -22.141 39.1046 25.819 -4.05745 3.58684 54.1194 -23.4971 -70.7262 7.6743 -56.7625 0.0103814 1.23424e-05 -36.0145 60.0972 -36.4234 50.6362 -26.9591 -27.9088 -18.1583 70.189 5.93224 60.5305 0.000509377 -1.44201e-05 14.4116 -51.5759 -24.7235 -6.62634 -8.80326 -58.1144 -6.22593 -178.292 53.8235 174.782 0.381388 -16.8534 -2.33123 6.59737 -19.2083 3.23293 9.80772 37.9714 -8.82615 -29.9665 9.32846 -21.4478 
-17.6654 63.397 -22.1853 32.8094 33.3505 -2.78401 3.06912 55.5545 -21.9144 -74.6852 3.61293 -57.768 0.0103825 1.14714e-05 -41.2544 61.204 -40.7817 54.1224 -25.1386 -31.7023 -19.5079 72.0104 6.81651 64.7123 0.000639848 -1.41783e-05 17.7689 -50.0176 -26.7809 -7.47203 -9.53924 -50.5325 1.83084 -173.743 55.1652 167.08 -2.13942 -18.3161 -11.7692 10.9111 -25.6255 2.70153 11.846 36.6717 -12.3734 -22.1048 12.7993 -16.0455 
-18.6867 65.7613 -21.506 23.8464 39.0352 -0.895551 0.622908 56.9615 -15.8231 -79.8934 0.938955 -62.3578 0.0103827 1.12581e-05 -42.4545 54.3446 -36.3828 42.4685 -22.7836 -33.9368 -19.2222 73.2652 6.94617 67.3809 0.000696654 -1.3872e-05 21.2954 -48.3884 -28.7999 -8.93289 -10.6578 -42.0872 7.3525 -163.791 65.743 155.442 -4.27564 -19.9431 -22.5253 17.5865 -33.3315 1.53002 15.9088 50.7926 -19.0291 -15.4731 6.67272 -10.84 
-17.7072 67.4137 -21.1648 12.7443 42.3782 0.110532 -4.00421 56.9932 -5.44054 -85.2035 -0.724148 -66.3068 0.0103826 1.13592e-05 -41.8893 49.6933 -30.1232 34.0538 -20.0521 -35.0607 -16.9936 72.9287 7.47074 67.9964 0.000692845 -1.33688e-05 26.1135 -47.5092 -29.6627 -11.7902 -14.0968 -35.8971 8.42258 -121.183 79.3641 112.091 -6.23328 -20.4028 -24.02 20.4174 -39.7011 -3.13018 31.8034 73.3498 -34.7251 -12.5622 0.410381 -6.70689 
-15.6529 67.9496 -21.6825 0.456196 44.1709 0.624024 -8.47112 54.6996 5.73419 -87.8398 -1.77223 -67.8043 0.0103824 1.15589e-05 -40.7535 49.6526 -27.0479 30.1322 -16.7708 -35.3292 -13.417 69.1114 5.58839 57.8473 0.000643755 -1.05354e-05 44.9588 -38.5793 -37.2174 -26.0282 -17.5901 -32.0768 5.13623 -33.6907 71.6404 24.9829 -5.03687 -20.8219 -14.8704 16.2943 -44.3628 -8.25001 154.903 78.145 -159.392 -11.1299 -2.68149 -4.47728 
-14.0019 67.592 -22.6644 -12.2162 44.4329 2.95083 -10.6437 50.9354 14.0095 -85.708 -2.22231 -68.2699 0.0103819 1.19729e-05 -38.3113 52.9659 -26.2486 29.1394 -12.5132 -34.8351 -9.35325 62.2457 2.38923 47.9163 0.000557967 -7.07861e-06 61.6121 -33.9976 -41.138 -46.7137 -16.5306 -27.0709 0.0825792 -17.2692 51.4754 11.6422 0.990181 -18.1864 -3.74226 8.2573 -51.126 -7.92913 177.307 60.5068 176.905 -12.382 -3.31283 -3.54215 
-14.0446 66.7611 -23.6345 -23.6882 41.9266 7.53396 -10.759 47.6929 18.6157 -79.6744 -2.26566 -67.5963 0.0103815 1.22522e-05 -36.5862 57.8025 -25.4341 30.7843 -6.95563 -33.5016 -5.41226 56.048 -1.53202 41.2046 0.000448175 -4.51191e-06 72.3594 -31.5812 -37.5129 -63.3963 -10.01 -19.7147 -3.24256 -14.1835 34.7274 11.869 9.23214 -13.1097 3.32758 -1.48231 -61.8503 -3.63537 -178.541 53.6506 177.108 -15.8928 -6.60055 -5.10665 
-15.8334 66.0781 -23.9438 -31.6105 36.5612 11.5582 -10.6588 46.2835 20.865 -72.525 -2.66918 -66.2652 0.0103812 1.24579e-05 -35.2701 61.7166 -24.1723 33.2961 -0.567067 -31.3267 -2.17728 56.2837 -6.33414 40.6535 0.000327821 -3.63885e-06 75.8533 -10.493 -38.437 -52.3071 -2.18578 -14.2134 -4.18748 -13.592 29.7138 13.0775 14.0114 -8.87508 6.0579 -9.90096 -71.0863 -1.4906 -175.319 59.3752 176.719 -16.2193 -13.3821 -8.96212 
-17.929 65.9926 -23.6156 -35.8873 30.2132 13.2562 -11.6793 46.3079 22.1868 -66.3266 -3.97353 -64.6913 0.0103808 1.27249e-05 -33.4943 63.9342 -23.1726 35.2606 5.43671 -28.5793 -0.090156 64.0378 -11.1517 48.7814 0.000210171 -4.08381e-06 74.0802 14.1946 -28.5361 -17.0955 3.0354 -7.26202 -3.92729 -11.9452 27.8377 11.3623 19.4216 -7.72675 7.71145 -16.3033 -75.1672 -3.5971 -164.743 73.0243 161.114 -12.9184 -15.2143 -10.1897 
-19.5846 66.1838 -23.0297 -38.4164 24.7049 13.3426 -13.4391 46.263 23.0716 -61.1802 -5.5305 -62.6944 0.0103803 1.30539e-05 -31.1846 65.3894 -22.9056 36.5635 10.0801 -25.4286 0.595976 73.0939 -11.5243 57.6599 0.000108611 -3.69655e-06 75.6242 24.8947 -23.0576 2.07645 6.90519 -0.780761 -3.14152 -9.78235 25.6032 12.481 20.194 -2.05199 7.78754 -21.0125 -75.1591 -8.18113 -70.2142 82.4511 63.2354 -10.8655 -13.1791 -7.57567 
